<svg width="136" height="131" viewBox="0 0 136 131" fill="none" xmlns="http://www.w3.org/2000/svg">
<g filter="url(#filter0_d)">
<path d="M125.462 43.5401H121.301C120.31 43.0625 119.321 42.6045 118.341 42.1729C119.917 39.8916 121.168 37.2715 122.134 34.2373C122.266 33.8213 122.288 33.3799 122.198 32.9532L121.776 30.9473L123.923 31.6895C124.921 32.0342 126.026 31.7207 126.696 30.9053C131.493 25.0586 132.417 10.7901 126.915 5.22563C126.571 4.87797 126.134 4.63773 125.655 4.53422C117.288 2.72465 109.84 5.92484 106.145 7.99418C105.267 8.48539 104.766 9.45219 104.869 10.4532L105.103 12.7129L103.023 11.7969C102.106 11.3936 101.038 11.5704 100.302 12.2471C95.1309 16.9961 91.3066 23.5899 89.5322 30.8125C89.0625 32.7237 88.7402 34.6514 88.5605 36.584C81.7773 37.2784 75.0166 39.4502 67.998 43.1934C59.6367 38.7354 51.6025 36.4912 43.4805 36.3409C34.5078 36.1807 25.0791 38.5323 14.6865 43.5401H10.5303C6.92969 43.5401 4 46.4727 4 50.0782V116.876C4 120.942 7.31055 124.25 11.3809 124.25H124.619C128.689 124.25 132 120.942 132 116.876V50.0782C132 46.4727 129.067 43.5401 125.462 43.5401ZM102.545 17.0948L107.041 19.0743C107.862 19.4366 108.815 19.334 109.541 18.8047C110.267 18.2764 110.657 17.4014 110.564 16.5079L110.061 11.6348C114.609 9.4268 119.493 8.59379 123.781 9.30766C126.302 12.7891 126.194 21.584 123.724 26.2862L119.216 24.7276C118.357 24.4317 117.406 24.6192 116.725 25.2198C116.043 25.8204 115.738 26.7413 115.925 27.6299L117.124 33.3282C113.985 42.5547 108.043 46.2627 96.7021 49.6006C99.5586 41.5176 103.894 34.2579 108.488 30.5362C109.571 29.6602 109.737 28.0723 108.861 26.9903C107.984 25.9082 106.397 25.7413 105.315 26.6182C100.875 30.2139 96.7373 36.4112 93.6475 43.5752C92.71 33.8516 95.9238 23.9014 102.545 17.0948ZM65.4756 47.5625V109.679H17.7842V47.6485C35.4863 39.3438 49.9111 39.3184 65.4756 47.5625ZM9.04199 116.876V50.0782C9.04199 49.2666 9.72363 48.5821 10.5303 48.5821H12.7422V112.2C12.7422 113.593 13.8701 114.721 15.2627 114.721H65.4756V119.208H11.3809C10.0918 119.208 9.04199 118.162 9.04199 116.876ZM126.958 116.876C126.958 118.162 125.908 119.208 124.619 119.208H70.5176V114.721H85.6855C87.0781 114.721 88.2061 113.593 88.2061 112.2C88.2061 110.808 87.0781 109.679 85.6855 109.679H70.5176V47.5596C76.6689 44.2998 82.5635 42.3594 88.4287 41.667C88.5713 45.3916 89.2441 49.0909 90.4541 52.67C89.6855 55.459 89.0918 58.2891 88.7158 61.0811H82.4131C81.1416 61.0811 80.1113 62.21 80.1113 63.6026C80.1113 64.9942 81.1416 66.1231 82.4131 66.1231H90.9678C90.9678 66.1231 91.876 66.0352 92.0332 65.8828C92.8154 65.5147 93.3877 64.7569 93.4727 63.834C93.7305 61.0479 94.2451 58.1758 94.9658 55.3272C101.9 53.4639 107.139 51.6748 111.496 48.8096C112.723 48.003 113.845 47.125 114.876 46.1719C115.975 46.6319 117.087 47.1241 118.209 47.6494V109.68H108.383C106.99 109.68 105.861 110.809 105.861 112.201C105.861 113.593 106.99 114.722 108.383 114.722H120.73C122.122 114.722 123.251 113.593 123.251 112.201V48.5821H125.462C126.287 48.5821 126.957 49.253 126.957 50.0782L126.958 116.876Z" fill="#575555"/>
<path d="M26.9092 66.8096H33.1572C34.1416 66.8096 35.0352 66.2373 35.4473 65.3437L36.2207 63.666L36.9746 65.3301C37.3828 66.2305 38.2812 66.8096 39.2705 66.8096H57.0518C58.4443 66.8096 59.5723 65.6816 59.5723 64.2891C59.5723 62.8965 58.4443 61.7676 57.0518 61.7676H40.8965L38.5352 56.5605C38.1279 55.6621 37.2334 55.083 36.2471 55.0801C36.2441 55.0801 36.2393 55.0801 36.2393 55.0801C35.2549 55.0801 34.3613 55.6523 33.9492 56.5469L31.543 61.7676H26.9092C25.5166 61.7676 24.3877 62.8965 24.3877 64.2891C24.3877 65.6816 25.5166 66.8096 26.9092 66.8096Z" fill="#575555"/>
<path d="M26.4629 83.1816H32.7178C33.4033 83.1816 34.0596 82.9023 34.5352 82.4082L35.7822 81.1123L36.9912 82.3916C37.4678 82.8955 38.1309 83.1816 38.8242 83.1816H56.6055C57.9971 83.1816 59.126 82.0527 59.126 80.6611C59.126 79.2685 57.9971 78.1396 56.6055 78.1396H39.9111L37.6318 75.7275C37.1582 75.2266 36.5 74.9414 35.8105 74.9375C35.8066 74.9375 35.8027 74.9375 35.7988 74.9375C35.1133 74.9375 34.458 75.2168 33.9824 75.7109L31.6445 78.1396H26.4629C25.0703 78.1396 23.9414 79.2685 23.9414 80.6611C23.9414 82.0527 25.0703 83.1816 26.4629 83.1816Z" fill="#575555"/>
<path d="M26.4629 98.165H32.7178C33.4033 98.165 34.0596 97.8857 34.5352 97.3926L35.7822 96.0957L36.9912 97.375C37.4678 97.8799 38.1309 98.165 38.8242 98.165H56.6055C57.9971 98.165 59.126 97.0371 59.126 95.6445C59.126 94.2519 57.9971 93.123 56.6055 93.123H39.9111L37.6318 90.7109C37.1582 90.21 36.5 89.9248 35.8105 89.9219C35.8066 89.9219 35.8027 89.9219 35.7988 89.9219C35.1133 89.9219 34.458 90.2002 33.9824 90.6943L31.6445 93.123H26.4629C25.0703 93.123 23.9414 94.2519 23.9414 95.6445C23.9414 97.0371 25.0703 98.165 26.4629 98.165Z" fill="#575555"/>
<path d="M112.441 83.7627C113.834 83.7627 114.963 82.6338 114.963 81.2412C114.963 79.8496 113.834 78.7207 112.441 78.7207H107.26L104.922 76.292C104.446 75.7978 103.79 75.5185 103.105 75.5185C103.102 75.5185 103.099 75.5185 103.095 75.5185C102.405 75.5215 101.748 75.8057 101.274 76.3066L98.9883 78.7207H82.292C80.8994 78.7207 79.7715 79.8496 79.7715 81.2412C79.7715 82.6338 80.8994 83.7627 82.292 83.7627H100.073C100.766 83.7627 101.428 83.4775 101.904 82.9746L103.12 81.6914L104.37 82.9902C104.846 83.4834 105.501 83.7627 106.187 83.7627H112.441Z" fill="#575555"/>
<path d="M97.126 109.679H97.084C95.6914 109.679 94.5625 110.808 94.5625 112.2C94.5625 113.593 95.6914 114.721 97.084 114.721H97.126C98.5186 114.721 99.6475 113.593 99.6475 112.2C99.6475 110.808 98.5186 109.679 97.126 109.679Z" fill="#575555"/>
</g>
<defs>
<filter id="filter0_d" x="0" y="2" width="136" height="128.25" filterUnits="userSpaceOnUse" color-interpolation-filters="sRGB">
<feFlood flood-opacity="0" result="BackgroundImageFix"/>
<feColorMatrix in="SourceAlpha" type="matrix" values="0 0 0 0 0 0 0 0 0 0 0 0 0 0 0 0 0 0 127 0"/>
<feOffset dy="2"/>
<feGaussianBlur stdDeviation="2"/>
<feColorMatrix type="matrix" values="0 0 0 0 0 0 0 0 0 0 0 0 0 0 0 0 0 0 0.25 0"/>
<feBlend mode="normal" in2="BackgroundImageFix" result="effect1_dropShadow"/>
<feBlend mode="normal" in="SourceGraphic" in2="effect1_dropShadow" result="shape"/>
</filter>
</defs>
</svg>
