<svg width="136" height="136" viewBox="0 0 136 136" fill="none" xmlns="http://www.w3.org/2000/svg">
<g filter="url(#filter0_d)">
<path d="M124.5 2H11.5C7.36426 2 4 5.36426 4 9.5V122.5C4 126.636 7.36426 130 11.5 130H124.5C128.636 130 132 126.636 132 122.5V9.5C132 5.36426 128.636 2 124.5 2ZM9 122.5V9.5C9 8.12109 10.1211 7 11.5 7H65.5V63.5H26.333C24.9521 63.5 23.833 64.6191 23.833 66C23.833 67.3809 24.9521 68.5 26.333 68.5H65.5V125H11.5C10.1211 125 9 123.879 9 122.5ZM127 122.5C127 123.879 125.879 125 124.5 125H70.5V68.5H122.645C124.025 68.5 125.145 67.3809 125.145 66C125.145 64.6191 124.025 63.5 122.645 63.5H70.5V7H124.5C125.879 7 127 8.12109 127 9.5V122.5Z" fill="#575555"/>
<path d="M16.75 68.501C17.4072 68.501 18.0527 68.2334 18.5176 67.7686C18.9824 67.3008 19.25 66.6582 19.25 66.001C19.25 65.3428 18.9824 64.6982 18.5176 64.2334C18.0527 63.7656 17.4102 63.501 16.75 63.501C16.0928 63.501 15.4473 63.7656 14.9824 64.2334C14.5176 64.6982 14.25 65.3408 14.25 66.001C14.25 66.6582 14.5176 67.3037 14.9824 67.7686C15.4473 68.2334 16.0928 68.501 16.75 68.501Z" fill="#575555"/>
<path d="M16.9443 37.082C16.7832 38.0195 17.1689 38.9678 17.9385 39.5273C18.709 40.0869 19.7295 40.1602 20.5713 39.7178L25.7451 36.9971L30.9199 39.7178C31.2852 39.9102 31.6846 40.0049 32.083 40.0049C32.6006 40.0049 33.1172 39.8428 33.5527 39.5273C34.3223 38.9678 34.708 38.0195 34.5469 37.082L33.5586 31.3203L37.7451 27.2402C38.4258 26.5762 38.6719 25.583 38.3779 24.6777C38.084 23.7725 37.3008 23.1133 36.3594 22.9756L30.5742 22.1357L27.9873 16.8936C27.5664 16.04 26.6973 15.5 25.7461 15.5C24.7939 15.5 23.9248 16.04 23.5039 16.8936L20.917 22.1357L15.1318 22.9756C14.1904 23.1133 13.4082 23.7725 13.1133 24.6777C12.8193 25.583 13.0654 26.5762 13.7461 27.2402L17.9326 31.3203L16.9443 37.082ZM22.9365 26.8945C23.751 26.7764 24.4551 26.2646 24.8184 25.5273L25.7461 23.6484L26.6729 25.5273C27.0371 26.2646 27.7412 26.7764 28.5547 26.8945L30.6279 27.1953L29.1279 28.6572C28.5381 29.2324 28.2695 30.0596 28.4092 30.8701L28.7627 32.9346L26.9092 31.96C26.5449 31.7686 26.1445 31.6729 25.7451 31.6729C25.3457 31.6729 24.9463 31.7686 24.582 31.96L22.7285 32.9346L23.082 30.8701C23.2217 30.0596 22.9531 29.2324 22.3633 28.6572L20.8633 27.1953L22.9365 26.8945Z" fill="#575555"/>
<path d="M123.885 100.493L118.101 99.6523L115.514 94.4102C115.092 93.5576 114.223 93.0166 113.271 93.0166C112.32 93.0166 111.451 93.5576 111.029 94.4102L108.442 99.6523L102.658 100.493C101.716 100.63 100.934 101.289 100.64 102.194C100.346 103.1 100.591 104.093 101.272 104.757L105.458 108.838L104.47 114.599C104.309 115.537 104.694 116.484 105.465 117.044C105.9 117.36 106.416 117.521 106.935 117.521C107.332 117.521 107.731 117.427 108.098 117.234L113.271 114.515L118.445 117.234C119.287 117.677 120.309 117.604 121.078 117.044C121.849 116.484 122.233 115.537 122.072 114.599L121.085 108.838L125.271 104.757C125.952 104.093 126.197 103.1 125.903 102.194C125.609 101.289 124.827 100.63 123.885 100.493ZM116.653 106.174C116.064 106.749 115.795 107.576 115.935 108.388L116.288 110.451L114.435 109.477C114.07 109.285 113.671 109.19 113.271 109.19C112.872 109.19 112.473 109.286 112.108 109.477L110.255 110.451L110.608 108.388C110.748 107.576 110.479 106.749 109.89 106.174L108.39 104.712L110.463 104.411C111.276 104.293 111.98 103.781 112.345 103.044L113.271 101.165L114.199 103.044C114.563 103.781 115.267 104.293 116.081 104.411L118.153 104.712L116.653 106.174Z" fill="#575555"/>
<path d="M58.9668 40.083H46.8838C45.5029 40.083 44.3838 41.2031 44.3838 42.583V54.667C44.3838 56.0469 45.5029 57.167 46.8838 57.167H58.9668C60.3477 57.167 61.4668 56.0469 61.4668 54.667V42.583C61.4668 41.2031 60.3477 40.083 58.9668 40.083ZM56.4668 52.167H49.3838V45.083H56.4668V52.167Z" fill="#575555"/>
<path d="M80.417 32.583H92.5C93.8809 32.583 95 31.4639 95 30.083V18C95 16.6191 93.8809 15.5 92.5 15.5H80.417C79.0361 15.5 77.917 16.6191 77.917 18V30.083C77.917 31.4639 79.0361 32.583 80.417 32.583ZM82.917 20.5H90V27.583H82.917V20.5Z" fill="#575555"/>
<path d="M54.25 100.438H42.167C40.7861 100.438 39.667 101.558 39.667 102.938V115.021C39.667 116.402 40.7861 117.521 42.167 117.521H54.25C55.6309 117.521 56.75 116.402 56.75 115.021V102.938C56.75 101.558 55.6309 100.438 54.25 100.438ZM51.75 112.521H44.667V105.438H51.75V112.521Z" fill="#575555"/>
<path d="M87.3125 38.375C82.1318 38.375 77.917 42.5898 77.917 47.7705C77.917 52.9521 82.1318 57.167 87.3125 57.167C92.4932 57.167 96.708 52.9521 96.708 47.7705C96.708 42.5898 92.4932 38.375 87.3125 38.375ZM87.3125 52.167C84.8887 52.167 82.917 50.1943 82.917 47.7705C82.917 45.3467 84.8887 43.375 87.3125 43.375C89.7363 43.375 91.708 45.3467 91.708 47.7705C91.708 50.1943 89.7363 52.167 87.3125 52.167Z" fill="#575555"/>
<path d="M24.375 76.5547C18.792 76.5547 14.25 81.0967 14.25 86.6797C14.25 92.2627 18.792 96.8047 24.375 96.8047C29.958 96.8047 34.5 92.2627 34.5 86.6797C34.5 81.0967 29.958 76.5547 24.375 76.5547ZM24.375 91.8047C21.5488 91.8047 19.25 89.5059 19.25 86.6797C19.25 83.8535 21.5488 81.5547 24.375 81.5547C27.2012 81.5547 29.5 83.8535 29.5 86.6797C29.5 89.5059 27.2012 91.8047 24.375 91.8047Z" fill="#575555"/>
<path d="M121.167 25.127L105.834 16.2744C105.06 15.8271 104.107 15.8271 103.334 16.2744C102.56 16.7207 102.084 17.5459 102.084 18.4395V36.1445C102.084 37.0371 102.56 37.8623 103.334 38.3096C103.721 38.5332 104.151 38.6445 104.584 38.6445C105.015 38.6445 105.446 38.5332 105.834 38.3096L121.167 29.457C121.94 29.0098 122.417 28.1846 122.417 27.292C122.417 26.3984 121.94 25.5732 121.167 25.127ZM107.083 31.8145V22.7686L114.916 27.292L107.083 31.8145Z" fill="#575555"/>
<path d="M60.2168 82.542L44.8838 73.6895C44.1104 73.2432 43.1572 73.2432 42.3838 73.6895C41.6104 74.1357 41.1338 74.9609 41.1338 75.8545V93.5596C41.1338 94.4521 41.6104 95.2783 42.3838 95.7246C42.7705 95.9482 43.2021 96.0596 43.6338 96.0596C44.0654 96.0596 44.4971 95.9482 44.8838 95.7246L60.2168 86.8721C60.9902 86.4258 61.4668 85.5996 61.4668 84.707C61.4668 83.8145 60.9902 82.9883 60.2168 82.542ZM46.1328 89.2295V80.1846L53.9668 84.707L46.1328 89.2295Z" fill="#575555"/>
<path d="M97 104.004L81.667 95.1514C80.8936 94.7041 79.9404 94.7041 79.167 95.1514C78.3936 95.5977 77.917 96.4229 77.917 97.3164V115.021C77.917 115.914 78.3936 116.74 79.167 117.187C79.5537 117.41 79.9854 117.521 80.417 117.521C80.8486 117.521 81.2803 117.41 81.667 117.187L97 108.334C97.7734 107.888 98.25 107.062 98.25 106.169C98.25 105.275 97.7734 104.45 97 104.004ZM82.917 110.691V101.646L90.75 106.169L82.917 110.691Z" fill="#575555"/>
<path d="M97 73.6895C96.2266 73.2422 95.2734 73.2422 94.5 73.6895L79.167 82.542C78.3936 82.9883 77.917 83.8145 77.917 84.707C77.917 85.5996 78.3936 86.4258 79.167 86.8721L94.5 95.7246C94.8867 95.9482 95.3184 96.0596 95.75 96.0596C96.1816 96.0596 96.6133 95.9482 97 95.7246C97.7734 95.2783 98.25 94.4521 98.25 93.5596V75.8545C98.25 74.9609 97.7734 74.1357 97 73.6895ZM93.25 89.2295L85.417 84.707L93.25 80.1846V89.2295Z" fill="#575555"/>
<path d="M34.917 52.167H18.417C17.0361 52.167 15.917 53.2861 15.917 54.667C15.917 56.0469 17.0361 57.167 18.417 57.167H34.917C36.2979 57.167 37.417 56.0469 37.417 54.667C37.417 53.2861 36.2969 52.167 34.917 52.167Z" fill="#575555"/>
<path d="M32 112.521H18.417C17.0361 112.521 15.917 113.641 15.917 115.021C15.917 116.402 17.0361 117.521 18.417 117.521H32C33.3809 117.521 34.5 116.402 34.5 115.021C34.5 113.641 33.3809 112.521 32 112.521Z" fill="#575555"/>
<path d="M44.917 24.25H58.9668C60.3477 24.25 61.4668 23.1309 61.4668 21.75C61.4668 20.3691 60.3477 19.25 58.9668 19.25H44.917C43.5361 19.25 42.417 20.3691 42.417 21.75C42.417 23.1309 43.5361 24.25 44.917 24.25Z" fill="#575555"/>
<path d="M119.917 52.167H104.584C103.203 52.167 102.084 53.2861 102.084 54.667C102.084 56.0469 103.203 57.167 104.584 57.167H119.917C121.298 57.167 122.417 56.0469 122.417 54.667C122.417 53.2861 121.297 52.167 119.917 52.167Z" fill="#575555"/>
<path d="M104.583 81.5547H119.916C121.297 81.5547 122.416 80.4355 122.416 79.0547C122.416 77.6748 121.297 76.5547 119.916 76.5547H104.583C103.202 76.5547 102.083 77.6748 102.083 79.0547C102.083 80.4355 103.203 81.5547 104.583 81.5547Z" fill="#575555"/>
</g>
<defs>
<filter id="filter0_d" x="0" y="0" width="136" height="136" filterUnits="userSpaceOnUse" color-interpolation-filters="sRGB">
<feFlood flood-opacity="0" result="BackgroundImageFix"/>
<feColorMatrix in="SourceAlpha" type="matrix" values="0 0 0 0 0 0 0 0 0 0 0 0 0 0 0 0 0 0 127 0"/>
<feOffset dy="2"/>
<feGaussianBlur stdDeviation="2"/>
<feColorMatrix type="matrix" values="0 0 0 0 0 0 0 0 0 0 0 0 0 0 0 0 0 0 0.25 0"/>
<feBlend mode="normal" in2="BackgroundImageFix" result="effect1_dropShadow"/>
<feBlend mode="normal" in="SourceGraphic" in2="effect1_dropShadow" result="shape"/>
</filter>
</defs>
</svg>
