<svg width="136" height="136" viewBox="0 0 136 136" fill="none" xmlns="http://www.w3.org/2000/svg">
<g filter="url(#filter0_d)">
<path d="M118.5 97.2783V42.917C118.5 42.1172 118.117 41.3652 117.471 40.8945L111.299 36.4072L116.158 33.3701C116.855 32.9346 117.294 32.1836 117.331 31.3623C117.367 30.541 116.998 29.7539 116.343 29.2578L111.833 25.8408V24.25H116C117.381 24.25 118.5 23.1309 118.5 21.75V16.75C118.5 8.61719 111.883 2 103.75 2H18.5C18.4746 2 18.4512 2.00293 18.4268 2.00391C18.3691 2.00293 18.3135 2 18.2559 2C14.3193 2 10.6621 3.94434 7.95801 7.47559C5.40527 10.8086 4 15.2031 4 19.8496C4 28.2031 9.46777 35 16.1885 35H30.0195V74.625C30.0195 75.4727 30.4482 76.2617 31.1592 76.7227L36.0605 79.9004L30.8535 84.5527C30.3232 85.0264 30.0195 85.7051 30.0195 86.417V108.083C30.0195 108.218 30.0332 108.35 30.0537 108.479C30.0332 108.608 30.0195 108.74 30.0195 108.875C30.0195 115.235 31.6621 120.589 34.7686 124.356C37.7695 127.995 42.0371 130 46.7842 130H115.5C124.599 130 132 122.599 132 113.5C132 105.427 126.17 98.6934 118.5 97.2783ZM24.5186 30C25.2549 28.6123 25.6719 27.0107 25.6719 25.29C25.6719 19.5264 21.9385 15.5 16.5918 15.5C15.2109 15.5 14.0918 16.6191 14.0918 18C14.0918 19.3809 15.2109 20.5 16.5918 20.5C19.1465 20.5 20.6719 22.291 20.6719 25.29C20.6719 28.3496 18.3613 30 16.1885 30C12.292 30 9 25.3516 9 19.8496C9 12.7646 13.1523 7 18.2559 7C21.791 7 24.5547 8.09863 26.4678 10.2646C28.8252 12.9316 30.0195 17.2588 30.0195 23.125V30H24.5186ZM38.626 121.175C36.2666 118.313 35.0195 114.061 35.0195 108.875C35.0195 108.74 35.0059 108.608 34.9854 108.479C35.0059 108.35 35.0195 108.218 35.0195 108.083V87.5352L41.832 81.4473C42.4131 80.9287 42.7197 80.168 42.6592 79.3906C42.5996 78.6143 42.1807 77.9092 41.5273 77.4854L35.0195 73.2666V23.125C35.0195 16.0322 33.415 10.6084 30.2539 7H103.75C109.126 7 113.5 11.374 113.5 16.75V19.25H109.333C107.953 19.25 106.833 20.3691 106.833 21.75V27.083C106.833 27.8662 107.2 28.6035 107.824 29.0762L110.433 31.0527L105.509 34.1299C104.804 34.5703 104.364 35.332 104.335 36.1621C104.306 36.9922 104.691 37.7832 105.363 38.2715L113.5 44.1895V97H49.9414C49.8184 97 49.6973 97.0117 49.5781 97.0293C49.3379 97.0117 49.0957 97 48.8506 97C43.5332 97 39.3672 101.266 39.3672 106.71C39.3672 112.475 43.1006 116.5 48.4473 116.5C49.8281 116.5 50.9473 115.381 50.9473 114C50.9473 112.619 49.8281 111.5 48.4473 111.5C45.8926 111.5 44.3672 109.709 44.3672 106.71C44.3672 103.65 46.6777 102 48.8506 102C52.7471 102 56.0391 106.648 56.0391 112.15C56.0391 119.235 51.8877 125 46.7842 125C43.5107 125 40.6895 123.678 38.626 121.175ZM115.5 125H56.6982C56.8271 124.844 56.9561 124.688 57.0811 124.524C59.4775 121.396 60.8623 117.33 61.0234 113H100C101.381 113 102.5 111.881 102.5 110.5C102.5 109.119 101.381 108 100 108H60.5703C60.0527 105.742 59.125 103.696 57.8906 102H115.5C121.841 102 127 107.159 127 113.5C127 119.841 121.841 125 115.5 125Z" fill="#575555"/>
<path d="M51.3398 26.5C51.9971 26.5 52.6396 26.2324 53.1074 25.7676C53.5723 25.3027 53.8398 24.6572 53.8398 24C53.8398 23.3428 53.5723 22.6973 53.1074 22.2324C52.6396 21.7676 51.9971 21.5 51.3398 21.5C50.6797 21.5 50.0371 21.7676 49.5723 22.2324C49.1074 22.6973 48.8398 23.3428 48.8398 24C48.8398 24.6572 49.1074 25.3027 49.5723 25.7676C50.0371 26.2324 50.6797 26.5 51.3398 26.5Z" fill="#575555"/>
<path d="M62 26.5H98.0889C99.4697 26.5 100.589 25.3809 100.589 24C100.589 22.6191 99.4697 21.5 98.0889 21.5H62C60.6191 21.5 59.5 22.6191 59.5 24C59.5 25.3809 60.6191 26.5 62 26.5Z" fill="#575555"/>
<path d="M51.3389 40.5H98.0889C99.4697 40.5 100.589 39.3809 100.589 38C100.589 36.6191 99.4697 35.5 98.0889 35.5H51.3389C49.959 35.5 48.8389 36.6191 48.8389 38C48.8389 39.3809 49.959 40.5 51.3389 40.5Z" fill="#575555"/>
<path d="M51.3389 54.5H98.0889C99.4697 54.5 100.589 53.3809 100.589 52C100.589 50.6191 99.4697 49.5 98.0889 49.5H51.3389C49.959 49.5 48.8389 50.6191 48.8389 52C48.8389 53.3809 49.959 54.5 51.3389 54.5Z" fill="#575555"/>
<path d="M51.3389 68.5H98.0889C99.4697 68.5 100.589 67.3809 100.589 66C100.589 64.6191 99.4697 63.5 98.0889 63.5H51.3389C49.959 63.5 48.8389 64.6191 48.8389 66C48.8389 67.3809 49.959 68.5 51.3389 68.5Z" fill="#575555"/>
<path d="M51.3389 82.5H98.0889C99.4697 82.5 100.589 81.3809 100.589 80C100.589 78.6191 99.4697 77.5 98.0889 77.5H51.3389C49.959 77.5 48.8389 78.6191 48.8389 80C48.8389 81.3809 49.959 82.5 51.3389 82.5Z" fill="#575555"/>
<path d="M109.718 108C109.06 108 108.415 108.268 107.95 108.732C107.485 109.197 107.218 109.843 107.218 110.5C107.218 111.157 107.484 111.803 107.95 112.268C108.415 112.732 109.06 113 109.718 113C110.375 113 111.02 112.732 111.484 112.268C111.95 111.803 112.218 111.157 112.218 110.5C112.218 109.843 111.95 109.197 111.484 108.732C111.02 108.268 110.375 108 109.718 108Z" fill="#575555"/>
</g>
<defs>
<filter id="filter0_d" x="0" y="0" width="136" height="136" filterUnits="userSpaceOnUse" color-interpolation-filters="sRGB">
<feFlood flood-opacity="0" result="BackgroundImageFix"/>
<feColorMatrix in="SourceAlpha" type="matrix" values="0 0 0 0 0 0 0 0 0 0 0 0 0 0 0 0 0 0 127 0"/>
<feOffset dy="2"/>
<feGaussianBlur stdDeviation="2"/>
<feColorMatrix type="matrix" values="0 0 0 0 0 0 0 0 0 0 0 0 0 0 0 0 0 0 0.25 0"/>
<feBlend mode="normal" in2="BackgroundImageFix" result="effect1_dropShadow"/>
<feBlend mode="normal" in="SourceGraphic" in2="effect1_dropShadow" result="shape"/>
</filter>
</defs>
</svg>
