<svg width="1216" height="947" viewBox="0 0 1216 947" fill="none" xmlns="http://www.w3.org/2000/svg">
<path class="room 0" fill-opacity="0.4" data-index="0" d="M143.5 49L64.5 0L0 28.5L168 130L11.5 202L56 235.5L136.5 196L251 268L361 212.5L121 61L143.5 49Z" fill="#FFF7AF"/>
<path class="room 1" fill-opacity="0.4" data-index="1" d="M453.5 247L159 387L453.5 587L751 435L453.5 247Z" fill="#CBFCFF"/>
<path class="room 2" fill-opacity="0.4" data-index="2" d="M822.5 478.5L523 632.5L847.5 849.5L1145 680L822.5 478.5Z" fill="#FFE0A3"/>
<path class="room 3" fill-opacity="0.4" data-index="3"  d="M850 852.513L1153.5 685.5L1215.5 725L983.5 858.5L1061 903.5L991 946.5L850 852.513Z" fill="#CEFFD9"/>
<path class="arrow 2" fill-opacity="0" d="M815.957 502.774C815.002 504.455 815.592 506.591 817.273 507.545L844.668 523.094C846.349 524.048 848.485 523.459 849.439 521.778C850.394 520.097 849.804 517.96 848.123 517.006L823.772 503.185L837.593 478.834C838.547 477.153 837.958 475.017 836.277 474.063C834.595 473.108 832.459 473.698 831.505 475.379L815.957 502.774ZM943.001 224.502C943.001 280.753 942.281 324.245 939.404 358.379C936.524 392.541 931.504 417.03 923.069 435.416C906.429 471.689 876.105 485.118 818.07 501.128L819.931 507.876C877.896 491.885 911.321 477.813 929.432 438.335C938.372 418.846 943.477 393.399 946.379 358.967C949.283 324.507 950.001 280.749 950.001 224.502L943.001 224.502Z" fill="#746C6C"/>
<path class="arrow 1" fill-opacity="0" d="M676.671 417.442C675.533 419.005 675.878 421.194 677.44 422.332L702.905 440.874C704.467 442.012 706.656 441.668 707.794 440.105C708.932 438.542 708.588 436.353 707.025 435.215L684.39 418.733L700.873 396.098C702.01 394.536 701.666 392.347 700.103 391.209C698.541 390.071 696.352 390.415 695.214 391.978L676.671 417.442ZM894.501 227.091C895.749 275.764 893.299 310.073 886.441 334.655C879.633 359.061 868.533 373.708 852.408 383.375C836.044 393.185 814.196 398.069 785.386 402.13C756.899 406.145 721.268 409.39 678.957 416.045L680.044 422.96C722.51 416.28 757.205 413.171 786.363 409.061C815.199 404.997 838.316 399.985 856.008 389.379C873.939 378.629 885.985 362.339 893.184 336.536C900.333 310.91 902.751 275.74 901.499 226.912L894.501 227.091Z" fill="#746C6C"/>
<path class="arrow 0" fill-opacity="0" d="M330.009 217.751C329.873 219.68 331.326 221.353 333.254 221.49L364.675 223.711C366.604 223.848 368.277 222.395 368.414 220.467C368.55 218.539 367.097 216.865 365.169 216.729L337.239 214.754L339.214 186.824C339.35 184.895 337.898 183.222 335.969 183.086C334.041 182.949 332.368 184.402 332.231 186.33L330.009 217.751ZM843.004 228.821C840.826 271.326 834.107 300.016 823.98 318.274C813.992 336.282 800.735 344.109 784.803 345.219C768.516 346.354 749.039 340.493 726.906 329.979C704.845 319.5 680.603 304.628 654.881 288.235C603.622 255.568 546.528 216.86 490.65 196.53C434.619 176.144 378.934 173.932 331.207 215.355L335.795 220.642C380.817 181.566 433.445 183.166 488.257 203.108C543.222 223.106 599.503 261.243 651.119 294.138C676.835 310.527 701.405 325.616 723.902 336.302C746.328 346.955 767.155 353.465 785.29 352.202C803.781 350.914 819.062 341.573 830.102 321.669C841.002 302.015 847.798 272.05 849.995 229.18L843.004 228.821Z" fill="#746C6C"/>
<path class="arrow 3" fill-opacity="0" d="M1139.02 715.348C1140.87 714.786 1141.91 712.832 1141.35 710.982L1132.2 680.841C1131.64 678.991 1129.68 677.947 1127.83 678.509C1125.98 679.07 1124.94 681.025 1125.5 682.875L1133.63 709.667L1106.84 717.802C1104.99 718.364 1103.95 720.318 1104.51 722.168C1105.07 724.018 1107.03 725.062 1108.88 724.5L1139.02 715.348ZM991 225C991 317.747 986.608 418.468 1002.43 506.618C1018.28 594.918 1054.53 671.381 1136.35 715.086L1139.65 708.912C1060.47 666.616 1024.97 592.58 1009.32 505.381C993.641 418.031 998 318.253 998 225L991 225Z" fill="#746C6C"/>
</svg>
