<svg width="2230" height="1074" viewBox="0 0 2230 1074" fill="none" style="top: -130px; left: -237px; position: absolute;" xmlns="http://www.w3.org/2000/svg">
<path class="room 10" data-index="6" d="M367 218L105.5 339L0 270L282 140.5L368.5 195L347 205L367 218Z" fill="#70F3E4" fill-opacity="0.25"/>
<path class="room 9" data-index="5" d="M376.5 220.5L111.5 343.5L278 452L563 313.5L547 305L524 316L466.5 279L472.5 258.5L456 248L449.5 250L442 246.5L444.5 243L405.5 241.5L376.5 220.5Z" fill="#FFA467" fill-opacity="0.25"/>
<path class="room 8" data-index="4" d="M286 457L570.5 318.5L678.5 384.5L394 526L286 457Z" fill="#D097FF" fill-opacity="0.25"/>
<path class="room 7" data-index="3" d="M686 389L399.5 529.5L638 685.5L923.5 535.5L686 389Z" fill="#9DFFBF" fill-opacity="0.25"/>
<path class="room 6" data-index="2" d="M1112.5 653.5L931 541L644.5 690L826 808L1112.5 653.5Z" fill="#FFF0A9" fill-opacity="0.25"/>
<path class="room 5" data-index="1" d="M1232.5 1073.5L1523.5 905L1122 658.5L832.5 812.5L1232.5 1073.5Z" fill="#FF8E8E" fill-opacity="0.25"/>
<path class="room 4" data-index="0" d="M1831.5 1073.5L1566.5 904L1959.5 676L2229.5 831.5L1831.5 1073.5Z" fill="#9BB3FF" fill-opacity="0.25"/>
<path class="arrow 5" d="M1139.38 704.915C1138.5 706.638 1139.19 708.745 1140.91 709.621L1169 723.892C1170.72 724.768 1172.83 724.081 1173.7 722.358C1174.58 720.635 1173.89 718.528 1172.17 717.652L1147.21 704.966L1159.89 680.005C1160.77 678.282 1160.08 676.175 1158.36 675.299C1156.63 674.423 1154.53 675.11 1153.65 676.834L1139.38 704.915ZM1235.5 309.884C1235.5 412.758 1240.11 502.056 1230.41 570.558C1225.57 604.734 1217.2 633.361 1203.13 655.688C1189.13 677.918 1169.38 694.054 1141.41 703.173L1143.58 709.828C1173.12 700.199 1194.18 683.022 1209.05 659.42C1223.86 635.915 1232.43 606.191 1237.34 571.54C1247.14 502.387 1242.5 412.126 1242.5 309.884L1235.5 309.884Z" fill="#746C6C" fill-opacity="0"/>
<path class="arrow 4" d="M1628.74 908.272C1630.55 907.585 1631.46 905.563 1630.77 903.756L1619.58 874.312C1618.89 872.505 1616.87 871.597 1615.06 872.284C1613.26 872.971 1612.35 874.993 1613.04 876.799L1622.98 902.972L1596.81 912.921C1595.01 913.608 1594.1 915.63 1594.78 917.437C1595.47 919.243 1597.49 920.151 1599.3 919.465L1628.74 908.272ZM1316.5 310.035C1316.5 381.462 1314.22 445.042 1316.17 502.243C1318.13 559.532 1324.34 610.885 1341.46 658.195C1375.79 753.081 1453.65 830.755 1626.07 908.193L1628.93 901.807C1457.35 824.745 1381.46 748.168 1348.04 655.813C1331.28 609.502 1325.12 558.986 1323.17 502.004C1321.22 444.934 1323.5 381.84 1323.5 310.035L1316.5 310.035Z" fill="#746C6C" fill-opacity="0"/>
<path class="arrow 6" d="M1045.57 645.594C1045.19 647.49 1046.42 649.334 1048.31 649.713L1079.2 655.891C1081.1 656.27 1082.94 655.041 1083.32 653.146C1083.7 651.25 1082.47 649.406 1080.57 649.027L1053.12 643.535L1058.61 616.079C1058.99 614.184 1057.76 612.34 1055.86 611.961C1053.97 611.582 1052.13 612.811 1051.75 614.706L1045.57 645.594ZM1166 309.502C1166 408.222 1160.1 475.737 1142.3 526.561C1124.59 577.136 1095.03 611.388 1047.06 643.369L1050.94 649.193C1099.92 616.544 1130.6 581.156 1148.91 528.874C1167.13 476.839 1173 408.28 1173 309.502L1166 309.502Z" fill="#746C6C" fill-opacity="0"/>
<path class="arrow 7" d="M875.252 533.316C873.77 534.558 873.576 536.766 874.818 538.247L895.054 562.387C896.296 563.868 898.504 564.063 899.985 562.821C901.466 561.579 901.661 559.371 900.419 557.89L882.431 536.432L903.889 518.444C905.37 517.203 905.564 514.995 904.323 513.514C903.081 512.032 900.873 511.838 899.392 513.08L875.252 533.316ZM1097.5 308.499C1097.5 359.763 1094.19 400.295 1086.65 432.041C1079.11 463.762 1067.41 486.489 1050.77 502.406C1017.47 534.262 963.156 540.02 877.807 532.512L877.194 539.485C962.344 546.976 1019.78 541.734 1055.61 507.465C1073.53 490.319 1085.73 466.203 1093.46 433.659C1101.18 401.14 1104.5 359.984 1104.5 308.499L1097.5 308.499Z" fill="#746C6C" fill-opacity="0"/>
<path class="arrow 6" d="M616.391 374.181C614.558 374.794 613.568 376.777 614.181 378.61L624.162 408.487C624.775 410.32 626.758 411.31 628.591 410.697C630.424 410.085 631.414 408.102 630.801 406.269L621.929 379.712L648.486 370.839C650.319 370.227 651.309 368.244 650.697 366.41C650.084 364.577 648.101 363.587 646.268 364.2L616.391 374.181ZM1029.5 309.191C1032.88 370.928 1021.34 411.552 999.76 436.576C978.255 461.514 946.15 471.67 906.669 471.049C867.154 470.427 820.718 458.999 771.316 441.292C721.955 423.599 669.853 399.721 619.063 374.37L615.937 380.633C666.839 406.04 719.219 430.055 768.954 447.881C818.648 465.693 865.923 477.409 906.559 478.048C947.228 478.688 981.713 468.223 1005.06 441.148C1028.34 414.158 1039.91 371.378 1036.49 308.809L1029.5 309.191Z" fill="#746C6C" fill-opacity="0"/>
<path class="arrow 8" d="M616.39 373.916C614.556 374.528 613.567 376.511 614.179 378.345L624.161 408.221C624.773 410.055 626.756 411.044 628.589 410.432C630.423 409.819 631.413 407.836 630.8 406.003L621.927 379.446L648.484 370.573C650.318 369.961 651.308 367.978 650.695 366.145C650.083 364.311 648.1 363.322 646.266 363.934L616.39 373.916ZM1029.5 308.926C1032.88 370.662 1021.34 411.286 999.759 436.31C978.254 461.248 946.149 471.405 906.667 470.783C867.153 470.161 820.717 458.733 771.315 441.026C721.953 423.334 669.852 399.455 619.062 374.104L615.936 380.367C666.837 405.774 719.218 429.789 768.953 447.615C818.647 465.427 865.922 477.143 906.557 477.782C947.226 478.423 981.711 467.957 1005.06 440.882C1028.33 413.893 1039.91 371.112 1036.49 308.544L1029.5 308.926Z" fill="#746C6C" fill-opacity="0"/>
<path class="arrow 9" d="M489.034 310.128C489.303 312.042 491.073 313.376 492.987 313.107L524.181 308.725C526.095 308.456 527.429 306.686 527.16 304.772C526.891 302.858 525.121 301.524 523.207 301.793L495.479 305.688L491.584 277.961C491.315 276.046 489.545 274.713 487.631 274.982C485.717 275.251 484.383 277.02 484.652 278.935L489.034 310.128ZM966.23 309.642C966.23 347.794 960.834 373.079 951.598 388.816C942.548 404.238 929.689 410.712 913.576 411.065C897.145 411.424 877.282 405.396 854.835 395.299C832.455 385.232 807.91 371.313 782.187 356.269C730.935 326.294 674.96 291.795 623.573 275.849C597.827 267.86 572.918 264.418 550.11 268.698C527.185 272.999 506.647 285.054 489.705 307.535L495.295 311.748C511.224 290.613 530.251 279.546 551.401 275.578C572.667 271.587 596.341 274.728 621.498 282.535C671.918 298.18 727.033 332.121 778.653 362.311C804.367 377.35 829.204 391.445 851.963 401.683C874.656 411.89 895.691 418.457 913.729 418.063C932.084 417.661 947.264 410.032 957.635 392.359C967.821 375.003 973.23 348.204 973.23 309.642L966.23 309.642Z" fill="#746C6C" fill-opacity="0"/>
<path class="arrow 10" d="M323.076 172.4C324.443 173.767 326.659 173.767 328.026 172.4L350.3 150.126C351.667 148.759 351.667 146.543 350.3 145.177C348.933 143.81 346.717 143.81 345.35 145.177L325.551 164.975L305.752 145.176C304.386 143.81 302.169 143.81 300.803 145.176C299.436 146.543 299.436 148.759 300.803 150.126L323.076 172.4ZM606.95 72.8159C544.235 44.276 495.159 26.5317 456.808 18.3589C418.516 10.1989 390.41 11.4688 370.029 21.6074C349.482 31.8292 337.516 50.6859 330.689 75.8963C323.883 101.023 322.051 132.909 322.051 169.925L329.051 169.925C329.051 132.977 330.9 101.891 337.445 77.7262C343.967 53.6455 355.02 36.8925 373.147 27.8747C391.441 18.7739 417.666 17.1748 455.349 25.2052C492.972 33.2228 541.515 50.7286 604.05 79.1872L606.95 72.8159Z" fill="#746C6C" fill-opacity="0"/>
</svg>
